<mxfile host="app.diagrams.net" modified="2023-11-08T05:02:25.913Z" agent="Mozilla/5.0 (Windows NT 10.0; Win64; x64) AppleWebKit/537.36 (KHTML, like Gecko) Chrome/119.0.0.0 Safari/537.36" etag="eQ7yZv9AqCJ2YipScA-W" version="22.0.8" type="device">
  <diagram name="Страница — 1" id="7w2oUHwHS0XCKLuB9zMp">
    <mxGraphModel dx="838" dy="871" grid="1" gridSize="10" guides="1" tooltips="1" connect="1" arrows="1" fold="1" page="1" pageScale="1" pageWidth="827" pageHeight="1169" math="0" shadow="0">
      <root>
        <mxCell id="0" />
        <mxCell id="1" parent="0" />
        <mxCell id="jmJ_CKSjA5PsXkeB_3oR-6" style="edgeStyle=orthogonalEdgeStyle;rounded=0;orthogonalLoop=1;jettySize=auto;html=1;exitX=0.5;exitY=1;exitDx=0;exitDy=0;entryX=0.5;entryY=0;entryDx=0;entryDy=0;" edge="1" parent="1" source="jmJ_CKSjA5PsXkeB_3oR-1" target="jmJ_CKSjA5PsXkeB_3oR-2">
          <mxGeometry relative="1" as="geometry" />
        </mxCell>
        <mxCell id="jmJ_CKSjA5PsXkeB_3oR-1" value="Начало" style="rounded=1;whiteSpace=wrap;html=1;" vertex="1" parent="1">
          <mxGeometry x="970" y="80" width="120" height="60" as="geometry" />
        </mxCell>
        <mxCell id="jmJ_CKSjA5PsXkeB_3oR-7" style="edgeStyle=orthogonalEdgeStyle;rounded=0;orthogonalLoop=1;jettySize=auto;html=1;exitX=0.5;exitY=1;exitDx=0;exitDy=0;entryX=0.5;entryY=0;entryDx=0;entryDy=0;" edge="1" parent="1" source="jmJ_CKSjA5PsXkeB_3oR-2" target="jmJ_CKSjA5PsXkeB_3oR-3">
          <mxGeometry relative="1" as="geometry" />
        </mxCell>
        <mxCell id="jmJ_CKSjA5PsXkeB_3oR-24" style="edgeStyle=orthogonalEdgeStyle;rounded=0;orthogonalLoop=1;jettySize=auto;html=1;exitX=0.5;exitY=1;exitDx=0;exitDy=0;entryX=0.5;entryY=0;entryDx=0;entryDy=0;" edge="1" parent="1" source="jmJ_CKSjA5PsXkeB_3oR-2" target="jmJ_CKSjA5PsXkeB_3oR-23">
          <mxGeometry relative="1" as="geometry" />
        </mxCell>
        <mxCell id="jmJ_CKSjA5PsXkeB_3oR-93" style="edgeStyle=orthogonalEdgeStyle;rounded=0;orthogonalLoop=1;jettySize=auto;html=1;exitX=0.5;exitY=1;exitDx=0;exitDy=0;" edge="1" parent="1" source="jmJ_CKSjA5PsXkeB_3oR-2" target="jmJ_CKSjA5PsXkeB_3oR-92">
          <mxGeometry relative="1" as="geometry" />
        </mxCell>
        <mxCell id="jmJ_CKSjA5PsXkeB_3oR-196" style="edgeStyle=orthogonalEdgeStyle;rounded=0;orthogonalLoop=1;jettySize=auto;html=1;exitX=0.5;exitY=1;exitDx=0;exitDy=0;entryX=0.5;entryY=0;entryDx=0;entryDy=0;" edge="1" parent="1" source="jmJ_CKSjA5PsXkeB_3oR-2" target="jmJ_CKSjA5PsXkeB_3oR-175">
          <mxGeometry relative="1" as="geometry" />
        </mxCell>
        <mxCell id="jmJ_CKSjA5PsXkeB_3oR-216" style="edgeStyle=orthogonalEdgeStyle;rounded=0;orthogonalLoop=1;jettySize=auto;html=1;exitX=0.5;exitY=1;exitDx=0;exitDy=0;entryX=0.5;entryY=0;entryDx=0;entryDy=0;" edge="1" parent="1" source="jmJ_CKSjA5PsXkeB_3oR-2" target="jmJ_CKSjA5PsXkeB_3oR-197">
          <mxGeometry relative="1" as="geometry" />
        </mxCell>
        <mxCell id="jmJ_CKSjA5PsXkeB_3oR-2" value="1&lt;br&gt;Открылось главное окно программы - хаб" style="rounded=0;whiteSpace=wrap;html=1;" vertex="1" parent="1">
          <mxGeometry x="970" y="180" width="120" height="70" as="geometry" />
        </mxCell>
        <mxCell id="jmJ_CKSjA5PsXkeB_3oR-8" style="edgeStyle=orthogonalEdgeStyle;rounded=0;orthogonalLoop=1;jettySize=auto;html=1;exitX=0.5;exitY=1;exitDx=0;exitDy=0;entryX=0.5;entryY=0;entryDx=0;entryDy=0;" edge="1" parent="1" source="jmJ_CKSjA5PsXkeB_3oR-3" target="jmJ_CKSjA5PsXkeB_3oR-4">
          <mxGeometry relative="1" as="geometry" />
        </mxCell>
        <mxCell id="jmJ_CKSjA5PsXkeB_3oR-13" style="edgeStyle=orthogonalEdgeStyle;rounded=0;orthogonalLoop=1;jettySize=auto;html=1;exitX=0.5;exitY=1;exitDx=0;exitDy=0;entryX=0.5;entryY=0;entryDx=0;entryDy=0;" edge="1" parent="1" source="jmJ_CKSjA5PsXkeB_3oR-3" target="jmJ_CKSjA5PsXkeB_3oR-10">
          <mxGeometry relative="1" as="geometry" />
        </mxCell>
        <mxCell id="jmJ_CKSjA5PsXkeB_3oR-3" value="2&lt;br&gt;Выбор пункта меню &quot;Справка&quot;" style="rounded=0;whiteSpace=wrap;html=1;" vertex="1" parent="1">
          <mxGeometry x="140" y="290" width="120" height="70" as="geometry" />
        </mxCell>
        <mxCell id="jmJ_CKSjA5PsXkeB_3oR-9" style="edgeStyle=orthogonalEdgeStyle;rounded=0;orthogonalLoop=1;jettySize=auto;html=1;exitX=0.5;exitY=1;exitDx=0;exitDy=0;entryX=0.5;entryY=0;entryDx=0;entryDy=0;" edge="1" parent="1" source="jmJ_CKSjA5PsXkeB_3oR-4" target="jmJ_CKSjA5PsXkeB_3oR-5">
          <mxGeometry relative="1" as="geometry" />
        </mxCell>
        <mxCell id="jmJ_CKSjA5PsXkeB_3oR-4" value="3&lt;br&gt;Нажатие кнопки &quot;О программе&quot;" style="rounded=0;whiteSpace=wrap;html=1;" vertex="1" parent="1">
          <mxGeometry x="60" y="400" width="120" height="70" as="geometry" />
        </mxCell>
        <mxCell id="jmJ_CKSjA5PsXkeB_3oR-19" style="edgeStyle=orthogonalEdgeStyle;rounded=0;orthogonalLoop=1;jettySize=auto;html=1;exitX=0.5;exitY=1;exitDx=0;exitDy=0;entryX=0.5;entryY=0;entryDx=0;entryDy=0;" edge="1" parent="1" source="jmJ_CKSjA5PsXkeB_3oR-5" target="jmJ_CKSjA5PsXkeB_3oR-17">
          <mxGeometry relative="1" as="geometry" />
        </mxCell>
        <mxCell id="jmJ_CKSjA5PsXkeB_3oR-5" value="4&lt;br&gt;Открылось окно с информацией &quot;О программе&quot;" style="rounded=0;whiteSpace=wrap;html=1;" vertex="1" parent="1">
          <mxGeometry x="60" y="510" width="120" height="70" as="geometry" />
        </mxCell>
        <mxCell id="jmJ_CKSjA5PsXkeB_3oR-14" style="edgeStyle=orthogonalEdgeStyle;rounded=0;orthogonalLoop=1;jettySize=auto;html=1;exitX=0.5;exitY=1;exitDx=0;exitDy=0;entryX=0.5;entryY=0;entryDx=0;entryDy=0;" edge="1" parent="1" source="jmJ_CKSjA5PsXkeB_3oR-10" target="jmJ_CKSjA5PsXkeB_3oR-11">
          <mxGeometry relative="1" as="geometry" />
        </mxCell>
        <mxCell id="jmJ_CKSjA5PsXkeB_3oR-10" value="5&lt;br&gt;Выбор пункта меню &quot;Помощь&quot;" style="rounded=0;whiteSpace=wrap;html=1;" vertex="1" parent="1">
          <mxGeometry x="220" y="400" width="120" height="70" as="geometry" />
        </mxCell>
        <mxCell id="jmJ_CKSjA5PsXkeB_3oR-15" style="edgeStyle=orthogonalEdgeStyle;rounded=0;orthogonalLoop=1;jettySize=auto;html=1;exitX=0.5;exitY=1;exitDx=0;exitDy=0;entryX=0.5;entryY=0;entryDx=0;entryDy=0;" edge="1" parent="1" source="jmJ_CKSjA5PsXkeB_3oR-11" target="jmJ_CKSjA5PsXkeB_3oR-12">
          <mxGeometry relative="1" as="geometry" />
        </mxCell>
        <mxCell id="jmJ_CKSjA5PsXkeB_3oR-11" value="6&lt;br&gt;Нажатие одной из кнопок помощи по решению капчи" style="rounded=0;whiteSpace=wrap;html=1;" vertex="1" parent="1">
          <mxGeometry x="220" y="510" width="120" height="70" as="geometry" />
        </mxCell>
        <mxCell id="jmJ_CKSjA5PsXkeB_3oR-22" style="edgeStyle=orthogonalEdgeStyle;rounded=0;orthogonalLoop=1;jettySize=auto;html=1;exitX=0.5;exitY=1;exitDx=0;exitDy=0;entryX=0.5;entryY=0;entryDx=0;entryDy=0;" edge="1" parent="1" source="jmJ_CKSjA5PsXkeB_3oR-12" target="jmJ_CKSjA5PsXkeB_3oR-21">
          <mxGeometry relative="1" as="geometry">
            <mxPoint x="280" y="700" as="targetPoint" />
          </mxGeometry>
        </mxCell>
        <mxCell id="jmJ_CKSjA5PsXkeB_3oR-12" value="7&lt;br&gt;Открылось окно помощи по выбранной капче" style="rounded=0;whiteSpace=wrap;html=1;" vertex="1" parent="1">
          <mxGeometry x="220" y="620" width="120" height="65" as="geometry" />
        </mxCell>
        <mxCell id="jmJ_CKSjA5PsXkeB_3oR-17" value="1" style="ellipse;whiteSpace=wrap;html=1;" vertex="1" parent="1">
          <mxGeometry x="100" y="620" width="40" height="40" as="geometry" />
        </mxCell>
        <mxCell id="jmJ_CKSjA5PsXkeB_3oR-21" value="1" style="ellipse;whiteSpace=wrap;html=1;" vertex="1" parent="1">
          <mxGeometry x="260" y="715" width="40" height="40" as="geometry" />
        </mxCell>
        <mxCell id="jmJ_CKSjA5PsXkeB_3oR-29" style="edgeStyle=orthogonalEdgeStyle;rounded=0;orthogonalLoop=1;jettySize=auto;html=1;exitX=0.5;exitY=1;exitDx=0;exitDy=0;entryX=0.5;entryY=0;entryDx=0;entryDy=0;" edge="1" parent="1" source="jmJ_CKSjA5PsXkeB_3oR-23" target="jmJ_CKSjA5PsXkeB_3oR-26">
          <mxGeometry relative="1" as="geometry" />
        </mxCell>
        <mxCell id="jmJ_CKSjA5PsXkeB_3oR-23" value="8&lt;br&gt;Выбор капчи &quot;Искажённый набор символов&quot;" style="rounded=0;whiteSpace=wrap;html=1;" vertex="1" parent="1">
          <mxGeometry x="560" y="290" width="120" height="70" as="geometry" />
        </mxCell>
        <mxCell id="jmJ_CKSjA5PsXkeB_3oR-75" style="edgeStyle=orthogonalEdgeStyle;rounded=0;orthogonalLoop=1;jettySize=auto;html=1;exitX=0.5;exitY=1;exitDx=0;exitDy=0;entryX=0.5;entryY=0;entryDx=0;entryDy=0;" edge="1" parent="1" source="jmJ_CKSjA5PsXkeB_3oR-26" target="jmJ_CKSjA5PsXkeB_3oR-27">
          <mxGeometry relative="1" as="geometry" />
        </mxCell>
        <mxCell id="jmJ_CKSjA5PsXkeB_3oR-76" style="edgeStyle=orthogonalEdgeStyle;rounded=0;orthogonalLoop=1;jettySize=auto;html=1;exitX=0.5;exitY=1;exitDx=0;exitDy=0;entryX=0.5;entryY=0;entryDx=0;entryDy=0;" edge="1" parent="1" source="jmJ_CKSjA5PsXkeB_3oR-26" target="jmJ_CKSjA5PsXkeB_3oR-32">
          <mxGeometry relative="1" as="geometry" />
        </mxCell>
        <mxCell id="jmJ_CKSjA5PsXkeB_3oR-77" style="edgeStyle=orthogonalEdgeStyle;rounded=0;orthogonalLoop=1;jettySize=auto;html=1;exitX=0.5;exitY=1;exitDx=0;exitDy=0;entryX=0.5;entryY=0;entryDx=0;entryDy=0;" edge="1" parent="1" source="jmJ_CKSjA5PsXkeB_3oR-26" target="jmJ_CKSjA5PsXkeB_3oR-61">
          <mxGeometry relative="1" as="geometry" />
        </mxCell>
        <mxCell id="jmJ_CKSjA5PsXkeB_3oR-26" value="9&lt;br&gt;Открылось окно капчи" style="rounded=0;whiteSpace=wrap;html=1;" vertex="1" parent="1">
          <mxGeometry x="560" y="400" width="120" height="70" as="geometry" />
        </mxCell>
        <mxCell id="jmJ_CKSjA5PsXkeB_3oR-84" style="edgeStyle=orthogonalEdgeStyle;rounded=0;orthogonalLoop=1;jettySize=auto;html=1;exitX=0.5;exitY=1;exitDx=0;exitDy=0;entryX=0.5;entryY=0;entryDx=0;entryDy=0;" edge="1" parent="1" source="jmJ_CKSjA5PsXkeB_3oR-27" target="jmJ_CKSjA5PsXkeB_3oR-26">
          <mxGeometry relative="1" as="geometry">
            <Array as="points">
              <mxPoint x="460" y="600" />
              <mxPoint x="380" y="600" />
              <mxPoint x="380" y="380" />
              <mxPoint x="620" y="380" />
            </Array>
          </mxGeometry>
        </mxCell>
        <mxCell id="jmJ_CKSjA5PsXkeB_3oR-27" value="10&lt;br&gt;Нажатие кнопки &quot;Обновить&quot;" style="rounded=0;whiteSpace=wrap;html=1;" vertex="1" parent="1">
          <mxGeometry x="400" y="510" width="120" height="70" as="geometry" />
        </mxCell>
        <mxCell id="jmJ_CKSjA5PsXkeB_3oR-41" style="edgeStyle=orthogonalEdgeStyle;rounded=0;orthogonalLoop=1;jettySize=auto;html=1;exitX=0.5;exitY=1;exitDx=0;exitDy=0;entryX=0.5;entryY=0;entryDx=0;entryDy=0;" edge="1" parent="1" source="jmJ_CKSjA5PsXkeB_3oR-32" target="jmJ_CKSjA5PsXkeB_3oR-33">
          <mxGeometry relative="1" as="geometry" />
        </mxCell>
        <mxCell id="jmJ_CKSjA5PsXkeB_3oR-32" value="11&lt;br&gt;Нажатие кнопки &quot;Проверить&quot;" style="rounded=0;whiteSpace=wrap;html=1;" vertex="1" parent="1">
          <mxGeometry x="560" y="510" width="120" height="70" as="geometry" />
        </mxCell>
        <mxCell id="jmJ_CKSjA5PsXkeB_3oR-38" style="edgeStyle=orthogonalEdgeStyle;rounded=0;orthogonalLoop=1;jettySize=auto;html=1;exitX=0;exitY=0.5;exitDx=0;exitDy=0;entryX=0.5;entryY=0;entryDx=0;entryDy=0;" edge="1" parent="1" source="jmJ_CKSjA5PsXkeB_3oR-33" target="jmJ_CKSjA5PsXkeB_3oR-44">
          <mxGeometry relative="1" as="geometry" />
        </mxCell>
        <mxCell id="jmJ_CKSjA5PsXkeB_3oR-39" value="Нет" style="edgeLabel;html=1;align=center;verticalAlign=middle;resizable=0;points=[];" vertex="1" connectable="0" parent="jmJ_CKSjA5PsXkeB_3oR-38">
          <mxGeometry x="-0.0033" y="1" relative="1" as="geometry">
            <mxPoint x="56" y="-14" as="offset" />
          </mxGeometry>
        </mxCell>
        <mxCell id="jmJ_CKSjA5PsXkeB_3oR-53" style="edgeStyle=orthogonalEdgeStyle;rounded=0;orthogonalLoop=1;jettySize=auto;html=1;exitX=1;exitY=0.5;exitDx=0;exitDy=0;entryX=0.5;entryY=0;entryDx=0;entryDy=0;" edge="1" parent="1" source="jmJ_CKSjA5PsXkeB_3oR-33" target="jmJ_CKSjA5PsXkeB_3oR-42">
          <mxGeometry relative="1" as="geometry" />
        </mxCell>
        <mxCell id="jmJ_CKSjA5PsXkeB_3oR-54" value="Да" style="edgeLabel;html=1;align=center;verticalAlign=middle;resizable=0;points=[];" vertex="1" connectable="0" parent="jmJ_CKSjA5PsXkeB_3oR-53">
          <mxGeometry x="-0.8249" y="2" relative="1" as="geometry">
            <mxPoint x="-8" y="-11" as="offset" />
          </mxGeometry>
        </mxCell>
        <mxCell id="jmJ_CKSjA5PsXkeB_3oR-33" value="12&lt;br&gt;Поле ответа заполнено?" style="rhombus;whiteSpace=wrap;html=1;" vertex="1" parent="1">
          <mxGeometry x="560" y="620" width="120" height="105" as="geometry" />
        </mxCell>
        <mxCell id="jmJ_CKSjA5PsXkeB_3oR-51" style="edgeStyle=orthogonalEdgeStyle;rounded=0;orthogonalLoop=1;jettySize=auto;html=1;exitX=0;exitY=0.5;exitDx=0;exitDy=0;entryX=0.5;entryY=0;entryDx=0;entryDy=0;" edge="1" parent="1" source="jmJ_CKSjA5PsXkeB_3oR-42" target="jmJ_CKSjA5PsXkeB_3oR-50">
          <mxGeometry relative="1" as="geometry" />
        </mxCell>
        <mxCell id="jmJ_CKSjA5PsXkeB_3oR-52" value="Нет" style="edgeLabel;html=1;align=center;verticalAlign=middle;resizable=0;points=[];" vertex="1" connectable="0" parent="jmJ_CKSjA5PsXkeB_3oR-51">
          <mxGeometry x="-0.1059" y="4" relative="1" as="geometry">
            <mxPoint x="8" y="-43" as="offset" />
          </mxGeometry>
        </mxCell>
        <mxCell id="jmJ_CKSjA5PsXkeB_3oR-55" style="edgeStyle=orthogonalEdgeStyle;rounded=0;orthogonalLoop=1;jettySize=auto;html=1;exitX=1;exitY=0.5;exitDx=0;exitDy=0;entryX=0.5;entryY=0;entryDx=0;entryDy=0;" edge="1" parent="1" source="jmJ_CKSjA5PsXkeB_3oR-42" target="jmJ_CKSjA5PsXkeB_3oR-49">
          <mxGeometry relative="1" as="geometry" />
        </mxCell>
        <mxCell id="jmJ_CKSjA5PsXkeB_3oR-56" value="Да" style="edgeLabel;html=1;align=center;verticalAlign=middle;resizable=0;points=[];" vertex="1" connectable="0" parent="jmJ_CKSjA5PsXkeB_3oR-55">
          <mxGeometry x="-0.7544" y="3" relative="1" as="geometry">
            <mxPoint x="-3" y="-15" as="offset" />
          </mxGeometry>
        </mxCell>
        <mxCell id="jmJ_CKSjA5PsXkeB_3oR-42" value="14&lt;br&gt;Ответ&lt;br&gt;правильный?" style="rhombus;whiteSpace=wrap;html=1;" vertex="1" parent="1">
          <mxGeometry x="560" y="770" width="120" height="105" as="geometry" />
        </mxCell>
        <mxCell id="jmJ_CKSjA5PsXkeB_3oR-85" style="edgeStyle=orthogonalEdgeStyle;rounded=0;orthogonalLoop=1;jettySize=auto;html=1;exitX=0.5;exitY=1;exitDx=0;exitDy=0;entryX=0.5;entryY=0;entryDx=0;entryDy=0;" edge="1" parent="1" source="jmJ_CKSjA5PsXkeB_3oR-44" target="jmJ_CKSjA5PsXkeB_3oR-26">
          <mxGeometry relative="1" as="geometry">
            <Array as="points">
              <mxPoint x="460" y="795" />
              <mxPoint x="380" y="795" />
              <mxPoint x="380" y="380" />
              <mxPoint x="620" y="380" />
            </Array>
          </mxGeometry>
        </mxCell>
        <mxCell id="jmJ_CKSjA5PsXkeB_3oR-44" value="13&lt;br&gt;Уведомление о незаполненном поле" style="rounded=0;whiteSpace=wrap;html=1;" vertex="1" parent="1">
          <mxGeometry x="400" y="705" width="120" height="70" as="geometry" />
        </mxCell>
        <mxCell id="jmJ_CKSjA5PsXkeB_3oR-87" style="edgeStyle=orthogonalEdgeStyle;rounded=0;orthogonalLoop=1;jettySize=auto;html=1;exitX=0.5;exitY=1;exitDx=0;exitDy=0;entryX=0.5;entryY=0;entryDx=0;entryDy=0;" edge="1" parent="1" source="jmJ_CKSjA5PsXkeB_3oR-49" target="jmJ_CKSjA5PsXkeB_3oR-26">
          <mxGeometry relative="1" as="geometry">
            <Array as="points">
              <mxPoint x="700" y="1000" />
              <mxPoint x="380" y="1000" />
              <mxPoint x="380" y="380" />
              <mxPoint x="620" y="380" />
            </Array>
          </mxGeometry>
        </mxCell>
        <mxCell id="jmJ_CKSjA5PsXkeB_3oR-49" value="16&lt;br&gt;Определение статуса решения как &quot;Верно&quot;" style="rounded=0;whiteSpace=wrap;html=1;" vertex="1" parent="1">
          <mxGeometry x="640" y="905" width="120" height="70" as="geometry" />
        </mxCell>
        <mxCell id="jmJ_CKSjA5PsXkeB_3oR-86" style="edgeStyle=orthogonalEdgeStyle;rounded=0;orthogonalLoop=1;jettySize=auto;html=1;exitX=0.5;exitY=1;exitDx=0;exitDy=0;entryX=0.5;entryY=0;entryDx=0;entryDy=0;" edge="1" parent="1" source="jmJ_CKSjA5PsXkeB_3oR-50" target="jmJ_CKSjA5PsXkeB_3oR-26">
          <mxGeometry relative="1" as="geometry">
            <Array as="points">
              <mxPoint x="540" y="1000" />
              <mxPoint x="380" y="1000" />
              <mxPoint x="380" y="380" />
              <mxPoint x="620" y="380" />
            </Array>
          </mxGeometry>
        </mxCell>
        <mxCell id="jmJ_CKSjA5PsXkeB_3oR-50" value="15&lt;br&gt;Определение статуса решения как&lt;br&gt;&quot;Не верно&quot;" style="rounded=0;whiteSpace=wrap;html=1;" vertex="1" parent="1">
          <mxGeometry x="480" y="905" width="120" height="70" as="geometry" />
        </mxCell>
        <mxCell id="jmJ_CKSjA5PsXkeB_3oR-64" style="edgeStyle=orthogonalEdgeStyle;rounded=0;orthogonalLoop=1;jettySize=auto;html=1;exitX=0.5;exitY=1;exitDx=0;exitDy=0;entryX=0.5;entryY=0;entryDx=0;entryDy=0;" edge="1" parent="1" source="jmJ_CKSjA5PsXkeB_3oR-61" target="jmJ_CKSjA5PsXkeB_3oR-63">
          <mxGeometry relative="1" as="geometry" />
        </mxCell>
        <mxCell id="jmJ_CKSjA5PsXkeB_3oR-61" value="17&lt;br&gt;Нажатие кнопки закрытия окна" style="rounded=0;whiteSpace=wrap;html=1;" vertex="1" parent="1">
          <mxGeometry x="720" y="510" width="120" height="70" as="geometry" />
        </mxCell>
        <mxCell id="jmJ_CKSjA5PsXkeB_3oR-68" style="edgeStyle=orthogonalEdgeStyle;rounded=0;orthogonalLoop=1;jettySize=auto;html=1;exitX=1;exitY=0.5;exitDx=0;exitDy=0;entryX=0.5;entryY=0;entryDx=0;entryDy=0;" edge="1" parent="1" source="jmJ_CKSjA5PsXkeB_3oR-63" target="jmJ_CKSjA5PsXkeB_3oR-65">
          <mxGeometry relative="1" as="geometry" />
        </mxCell>
        <mxCell id="jmJ_CKSjA5PsXkeB_3oR-69" value="Да" style="edgeLabel;html=1;align=center;verticalAlign=middle;resizable=0;points=[];" vertex="1" connectable="0" parent="jmJ_CKSjA5PsXkeB_3oR-68">
          <mxGeometry x="-0.5765" y="5" relative="1" as="geometry">
            <mxPoint x="-7" y="-5" as="offset" />
          </mxGeometry>
        </mxCell>
        <mxCell id="jmJ_CKSjA5PsXkeB_3oR-71" style="edgeStyle=orthogonalEdgeStyle;rounded=0;orthogonalLoop=1;jettySize=auto;html=1;exitX=0.5;exitY=1;exitDx=0;exitDy=0;entryX=0.5;entryY=0;entryDx=0;entryDy=0;" edge="1" parent="1" source="jmJ_CKSjA5PsXkeB_3oR-63" target="jmJ_CKSjA5PsXkeB_3oR-70">
          <mxGeometry relative="1" as="geometry" />
        </mxCell>
        <mxCell id="jmJ_CKSjA5PsXkeB_3oR-72" value="Нет" style="edgeLabel;html=1;align=center;verticalAlign=middle;resizable=0;points=[];" vertex="1" connectable="0" parent="jmJ_CKSjA5PsXkeB_3oR-71">
          <mxGeometry x="-0.0794" y="4" relative="1" as="geometry">
            <mxPoint x="-24" y="1" as="offset" />
          </mxGeometry>
        </mxCell>
        <mxCell id="jmJ_CKSjA5PsXkeB_3oR-63" value="18&lt;br&gt;Статус решения определён?" style="rhombus;whiteSpace=wrap;html=1;" vertex="1" parent="1">
          <mxGeometry x="720" y="620" width="120" height="100" as="geometry" />
        </mxCell>
        <mxCell id="jmJ_CKSjA5PsXkeB_3oR-65" value="1" style="ellipse;whiteSpace=wrap;html=1;" vertex="1" parent="1">
          <mxGeometry x="840" y="715" width="40" height="40" as="geometry" />
        </mxCell>
        <mxCell id="jmJ_CKSjA5PsXkeB_3oR-88" style="edgeStyle=orthogonalEdgeStyle;rounded=0;orthogonalLoop=1;jettySize=auto;html=1;exitX=0.5;exitY=1;exitDx=0;exitDy=0;entryX=0.5;entryY=0;entryDx=0;entryDy=0;" edge="1" parent="1" source="jmJ_CKSjA5PsXkeB_3oR-70" target="jmJ_CKSjA5PsXkeB_3oR-26">
          <mxGeometry relative="1" as="geometry">
            <Array as="points">
              <mxPoint x="780" y="1000" />
              <mxPoint x="380" y="1000" />
              <mxPoint x="380" y="380" />
              <mxPoint x="620" y="380" />
            </Array>
          </mxGeometry>
        </mxCell>
        <mxCell id="jmJ_CKSjA5PsXkeB_3oR-70" value="19&lt;br&gt;Уведомление о нерешенной капче" style="rounded=0;whiteSpace=wrap;html=1;" vertex="1" parent="1">
          <mxGeometry x="720" y="760" width="120" height="70" as="geometry" />
        </mxCell>
        <mxCell id="jmJ_CKSjA5PsXkeB_3oR-128" style="edgeStyle=orthogonalEdgeStyle;rounded=0;orthogonalLoop=1;jettySize=auto;html=1;exitX=0.5;exitY=1;exitDx=0;exitDy=0;entryX=0.5;entryY=0;entryDx=0;entryDy=0;" edge="1" parent="1" source="jmJ_CKSjA5PsXkeB_3oR-92" target="jmJ_CKSjA5PsXkeB_3oR-97">
          <mxGeometry relative="1" as="geometry" />
        </mxCell>
        <mxCell id="jmJ_CKSjA5PsXkeB_3oR-92" value="20&lt;br&gt;Выбор капчи &quot;Искажённый математический пример&quot;" style="rounded=0;whiteSpace=wrap;html=1;" vertex="1" parent="1">
          <mxGeometry x="1029.94" y="290" width="120" height="70" as="geometry" />
        </mxCell>
        <mxCell id="jmJ_CKSjA5PsXkeB_3oR-136" style="edgeStyle=orthogonalEdgeStyle;rounded=0;orthogonalLoop=1;jettySize=auto;html=1;exitX=0.5;exitY=1;exitDx=0;exitDy=0;entryX=0.5;entryY=0;entryDx=0;entryDy=0;" edge="1" parent="1" source="jmJ_CKSjA5PsXkeB_3oR-97" target="jmJ_CKSjA5PsXkeB_3oR-130">
          <mxGeometry relative="1" as="geometry">
            <Array as="points">
              <mxPoint x="1088.94" y="490" />
              <mxPoint x="1009.9399999999999" y="490" />
            </Array>
          </mxGeometry>
        </mxCell>
        <mxCell id="jmJ_CKSjA5PsXkeB_3oR-170" style="edgeStyle=orthogonalEdgeStyle;rounded=0;orthogonalLoop=1;jettySize=auto;html=1;exitX=0.5;exitY=1;exitDx=0;exitDy=0;entryX=0.5;entryY=0;entryDx=0;entryDy=0;" edge="1" parent="1" source="jmJ_CKSjA5PsXkeB_3oR-97" target="jmJ_CKSjA5PsXkeB_3oR-166">
          <mxGeometry relative="1" as="geometry">
            <Array as="points">
              <mxPoint x="1088.94" y="490" />
              <mxPoint x="1098.94" y="490" />
              <mxPoint x="1098.94" y="510" />
              <mxPoint x="1118.94" y="510" />
            </Array>
          </mxGeometry>
        </mxCell>
        <mxCell id="jmJ_CKSjA5PsXkeB_3oR-171" style="edgeStyle=orthogonalEdgeStyle;rounded=0;orthogonalLoop=1;jettySize=auto;html=1;exitX=0.5;exitY=1;exitDx=0;exitDy=0;entryX=0.5;entryY=0;entryDx=0;entryDy=0;" edge="1" parent="1" source="jmJ_CKSjA5PsXkeB_3oR-97" target="jmJ_CKSjA5PsXkeB_3oR-168">
          <mxGeometry relative="1" as="geometry">
            <Array as="points">
              <mxPoint x="1088.94" y="490" />
              <mxPoint x="1108.94" y="490" />
              <mxPoint x="1108.94" y="500" />
              <mxPoint x="1149.94" y="500" />
            </Array>
          </mxGeometry>
        </mxCell>
        <mxCell id="jmJ_CKSjA5PsXkeB_3oR-172" style="edgeStyle=orthogonalEdgeStyle;rounded=0;orthogonalLoop=1;jettySize=auto;html=1;exitX=0.5;exitY=1;exitDx=0;exitDy=0;entryX=0.5;entryY=0;entryDx=0;entryDy=0;" edge="1" parent="1" source="jmJ_CKSjA5PsXkeB_3oR-97" target="jmJ_CKSjA5PsXkeB_3oR-169">
          <mxGeometry relative="1" as="geometry">
            <Array as="points">
              <mxPoint x="1088.94" y="490" />
              <mxPoint x="1178.94" y="490" />
            </Array>
          </mxGeometry>
        </mxCell>
        <mxCell id="jmJ_CKSjA5PsXkeB_3oR-97" value="21&lt;br&gt;Открылось окно капчи" style="rounded=0;whiteSpace=wrap;html=1;" vertex="1" parent="1">
          <mxGeometry x="1028.94" y="400" width="120" height="70" as="geometry" />
        </mxCell>
        <mxCell id="jmJ_CKSjA5PsXkeB_3oR-137" style="edgeStyle=orthogonalEdgeStyle;rounded=0;orthogonalLoop=1;jettySize=auto;html=1;exitX=0.5;exitY=1;exitDx=0;exitDy=0;entryX=0.5;entryY=0;entryDx=0;entryDy=0;" edge="1" parent="1" source="jmJ_CKSjA5PsXkeB_3oR-130" target="jmJ_CKSjA5PsXkeB_3oR-131">
          <mxGeometry relative="1" as="geometry" />
        </mxCell>
        <mxCell id="jmJ_CKSjA5PsXkeB_3oR-130" value="22&lt;br&gt;Ввод символа" style="rounded=0;whiteSpace=wrap;html=1;" vertex="1" parent="1">
          <mxGeometry x="949.9399999999999" y="512.5" width="120" height="70" as="geometry" />
        </mxCell>
        <mxCell id="jmJ_CKSjA5PsXkeB_3oR-134" style="edgeStyle=orthogonalEdgeStyle;rounded=0;orthogonalLoop=1;jettySize=auto;html=1;exitX=0;exitY=0.5;exitDx=0;exitDy=0;entryX=0.5;entryY=0;entryDx=0;entryDy=0;" edge="1" parent="1" source="jmJ_CKSjA5PsXkeB_3oR-131" target="jmJ_CKSjA5PsXkeB_3oR-133">
          <mxGeometry relative="1" as="geometry" />
        </mxCell>
        <mxCell id="jmJ_CKSjA5PsXkeB_3oR-135" value="Нет" style="edgeLabel;html=1;align=center;verticalAlign=middle;resizable=0;points=[];" vertex="1" connectable="0" parent="jmJ_CKSjA5PsXkeB_3oR-134">
          <mxGeometry x="-0.6931" y="-1" relative="1" as="geometry">
            <mxPoint x="10" y="-22" as="offset" />
          </mxGeometry>
        </mxCell>
        <mxCell id="jmJ_CKSjA5PsXkeB_3oR-139" style="edgeStyle=orthogonalEdgeStyle;rounded=0;orthogonalLoop=1;jettySize=auto;html=1;exitX=1;exitY=0.5;exitDx=0;exitDy=0;entryX=0.5;entryY=0;entryDx=0;entryDy=0;" edge="1" parent="1" source="jmJ_CKSjA5PsXkeB_3oR-131" target="jmJ_CKSjA5PsXkeB_3oR-138">
          <mxGeometry relative="1" as="geometry" />
        </mxCell>
        <mxCell id="jmJ_CKSjA5PsXkeB_3oR-140" value="Да" style="edgeLabel;html=1;align=center;verticalAlign=middle;resizable=0;points=[];" vertex="1" connectable="0" parent="jmJ_CKSjA5PsXkeB_3oR-139">
          <mxGeometry x="-0.6269" y="2" relative="1" as="geometry">
            <mxPoint x="-9" y="-13" as="offset" />
          </mxGeometry>
        </mxCell>
        <mxCell id="jmJ_CKSjA5PsXkeB_3oR-131" value="23&lt;br&gt;Введён&lt;br&gt;допустимый&lt;br&gt;символ?" style="rhombus;whiteSpace=wrap;html=1;" vertex="1" parent="1">
          <mxGeometry x="949.9399999999999" y="625" width="120" height="100" as="geometry" />
        </mxCell>
        <mxCell id="jmJ_CKSjA5PsXkeB_3oR-173" style="edgeStyle=orthogonalEdgeStyle;rounded=0;orthogonalLoop=1;jettySize=auto;html=1;exitX=0.5;exitY=1;exitDx=0;exitDy=0;entryX=0.5;entryY=0;entryDx=0;entryDy=0;" edge="1" parent="1" source="jmJ_CKSjA5PsXkeB_3oR-133" target="jmJ_CKSjA5PsXkeB_3oR-97">
          <mxGeometry relative="1" as="geometry">
            <Array as="points">
              <mxPoint x="999" y="853" />
              <mxPoint x="910" y="853" />
              <mxPoint x="910" y="380" />
              <mxPoint x="1089" y="380" />
            </Array>
          </mxGeometry>
        </mxCell>
        <mxCell id="jmJ_CKSjA5PsXkeB_3oR-133" value="24&lt;br&gt;Уведомление о некорректном вводе" style="rounded=0;whiteSpace=wrap;html=1;" vertex="1" parent="1">
          <mxGeometry x="938.9399999999999" y="762.5" width="120" height="70" as="geometry" />
        </mxCell>
        <mxCell id="jmJ_CKSjA5PsXkeB_3oR-174" style="edgeStyle=orthogonalEdgeStyle;rounded=0;orthogonalLoop=1;jettySize=auto;html=1;exitX=0.5;exitY=1;exitDx=0;exitDy=0;entryX=0.5;entryY=0;entryDx=0;entryDy=0;" edge="1" parent="1" source="jmJ_CKSjA5PsXkeB_3oR-138" target="jmJ_CKSjA5PsXkeB_3oR-97">
          <mxGeometry relative="1" as="geometry">
            <Array as="points">
              <mxPoint x="1139" y="853" />
              <mxPoint x="910" y="853" />
              <mxPoint x="910" y="380" />
              <mxPoint x="1089" y="380" />
            </Array>
          </mxGeometry>
        </mxCell>
        <mxCell id="jmJ_CKSjA5PsXkeB_3oR-138" value="25&lt;br&gt;Добавление символа в поле ввода" style="rounded=0;whiteSpace=wrap;html=1;" vertex="1" parent="1">
          <mxGeometry x="1078.94" y="762.5" width="120" height="70" as="geometry" />
        </mxCell>
        <mxCell id="jmJ_CKSjA5PsXkeB_3oR-166" value="10" style="ellipse;whiteSpace=wrap;html=1;" vertex="1" parent="1">
          <mxGeometry x="1098.94" y="550" width="40" height="40" as="geometry" />
        </mxCell>
        <mxCell id="jmJ_CKSjA5PsXkeB_3oR-168" value="11" style="ellipse;whiteSpace=wrap;html=1;" vertex="1" parent="1">
          <mxGeometry x="1129.94" y="590" width="40" height="40" as="geometry" />
        </mxCell>
        <mxCell id="jmJ_CKSjA5PsXkeB_3oR-169" value="17" style="ellipse;whiteSpace=wrap;html=1;" vertex="1" parent="1">
          <mxGeometry x="1158.94" y="635" width="40" height="40" as="geometry" />
        </mxCell>
        <mxCell id="jmJ_CKSjA5PsXkeB_3oR-186" style="edgeStyle=orthogonalEdgeStyle;rounded=0;orthogonalLoop=1;jettySize=auto;html=1;exitX=0.5;exitY=1;exitDx=0;exitDy=0;entryX=0.5;entryY=0;entryDx=0;entryDy=0;" edge="1" parent="1" source="jmJ_CKSjA5PsXkeB_3oR-175" target="jmJ_CKSjA5PsXkeB_3oR-176">
          <mxGeometry relative="1" as="geometry" />
        </mxCell>
        <mxCell id="jmJ_CKSjA5PsXkeB_3oR-175" value="26&lt;br&gt;Выбор капчи &quot;Поворот картинки&quot;" style="rounded=0;whiteSpace=wrap;html=1;" vertex="1" parent="1">
          <mxGeometry x="1360" y="290" width="120" height="70" as="geometry" />
        </mxCell>
        <mxCell id="jmJ_CKSjA5PsXkeB_3oR-187" style="edgeStyle=orthogonalEdgeStyle;rounded=0;orthogonalLoop=1;jettySize=auto;html=1;exitX=0.5;exitY=1;exitDx=0;exitDy=0;entryX=0.5;entryY=0;entryDx=0;entryDy=0;" edge="1" parent="1" source="jmJ_CKSjA5PsXkeB_3oR-176" target="jmJ_CKSjA5PsXkeB_3oR-178">
          <mxGeometry relative="1" as="geometry" />
        </mxCell>
        <mxCell id="jmJ_CKSjA5PsXkeB_3oR-191" style="edgeStyle=orthogonalEdgeStyle;rounded=0;orthogonalLoop=1;jettySize=auto;html=1;exitX=0.5;exitY=1;exitDx=0;exitDy=0;entryX=0.5;entryY=0;entryDx=0;entryDy=0;" edge="1" parent="1" source="jmJ_CKSjA5PsXkeB_3oR-176" target="jmJ_CKSjA5PsXkeB_3oR-189">
          <mxGeometry relative="1" as="geometry">
            <Array as="points">
              <mxPoint x="1420" y="490" />
              <mxPoint x="1440" y="490" />
              <mxPoint x="1440" y="500" />
              <mxPoint x="1450" y="500" />
            </Array>
          </mxGeometry>
        </mxCell>
        <mxCell id="jmJ_CKSjA5PsXkeB_3oR-192" style="edgeStyle=orthogonalEdgeStyle;rounded=0;orthogonalLoop=1;jettySize=auto;html=1;exitX=0.5;exitY=1;exitDx=0;exitDy=0;entryX=0.5;entryY=0;entryDx=0;entryDy=0;" edge="1" parent="1" source="jmJ_CKSjA5PsXkeB_3oR-176" target="jmJ_CKSjA5PsXkeB_3oR-190">
          <mxGeometry relative="1" as="geometry">
            <Array as="points">
              <mxPoint x="1420" y="490" />
              <mxPoint x="1480" y="490" />
            </Array>
          </mxGeometry>
        </mxCell>
        <mxCell id="jmJ_CKSjA5PsXkeB_3oR-176" value="27&lt;br&gt;Открылось окно капчи" style="rounded=0;whiteSpace=wrap;html=1;" vertex="1" parent="1">
          <mxGeometry x="1360" y="400" width="120" height="70" as="geometry" />
        </mxCell>
        <mxCell id="jmJ_CKSjA5PsXkeB_3oR-195" style="edgeStyle=orthogonalEdgeStyle;rounded=0;orthogonalLoop=1;jettySize=auto;html=1;exitX=0.5;exitY=1;exitDx=0;exitDy=0;entryX=0.5;entryY=0;entryDx=0;entryDy=0;" edge="1" parent="1" source="jmJ_CKSjA5PsXkeB_3oR-178" target="jmJ_CKSjA5PsXkeB_3oR-179">
          <mxGeometry relative="1" as="geometry" />
        </mxCell>
        <mxCell id="jmJ_CKSjA5PsXkeB_3oR-178" value="28&lt;br&gt;Нажатие кнопки &quot;Проверить&quot;" style="rounded=0;whiteSpace=wrap;html=1;" vertex="1" parent="1">
          <mxGeometry x="1270" y="510" width="120" height="70" as="geometry" />
        </mxCell>
        <mxCell id="jmJ_CKSjA5PsXkeB_3oR-182" style="edgeStyle=orthogonalEdgeStyle;rounded=0;orthogonalLoop=1;jettySize=auto;html=1;exitX=0;exitY=0.5;exitDx=0;exitDy=0;entryX=0.5;entryY=0;entryDx=0;entryDy=0;" edge="1" parent="1" source="jmJ_CKSjA5PsXkeB_3oR-179" target="jmJ_CKSjA5PsXkeB_3oR-181">
          <mxGeometry relative="1" as="geometry" />
        </mxCell>
        <mxCell id="jmJ_CKSjA5PsXkeB_3oR-185" value="Нет" style="edgeLabel;html=1;align=center;verticalAlign=middle;resizable=0;points=[];" vertex="1" connectable="0" parent="jmJ_CKSjA5PsXkeB_3oR-182">
          <mxGeometry x="-0.8302" y="-2" relative="1" as="geometry">
            <mxPoint x="-1" y="-10" as="offset" />
          </mxGeometry>
        </mxCell>
        <mxCell id="jmJ_CKSjA5PsXkeB_3oR-183" style="edgeStyle=orthogonalEdgeStyle;rounded=0;orthogonalLoop=1;jettySize=auto;html=1;exitX=1;exitY=0.5;exitDx=0;exitDy=0;entryX=0.5;entryY=0;entryDx=0;entryDy=0;" edge="1" parent="1" source="jmJ_CKSjA5PsXkeB_3oR-179" target="jmJ_CKSjA5PsXkeB_3oR-180">
          <mxGeometry relative="1" as="geometry" />
        </mxCell>
        <mxCell id="jmJ_CKSjA5PsXkeB_3oR-184" value="Да" style="edgeLabel;html=1;align=center;verticalAlign=middle;resizable=0;points=[];" vertex="1" connectable="0" parent="jmJ_CKSjA5PsXkeB_3oR-183">
          <mxGeometry x="-0.6584" y="1" relative="1" as="geometry">
            <mxPoint x="-11" y="-12" as="offset" />
          </mxGeometry>
        </mxCell>
        <mxCell id="jmJ_CKSjA5PsXkeB_3oR-179" value="29&lt;br&gt;Ответ&lt;br&gt;находится в заданном диапазоне?" style="rhombus;whiteSpace=wrap;html=1;" vertex="1" parent="1">
          <mxGeometry x="1320" y="615" width="120" height="105" as="geometry" />
        </mxCell>
        <mxCell id="jmJ_CKSjA5PsXkeB_3oR-194" style="edgeStyle=orthogonalEdgeStyle;rounded=0;orthogonalLoop=1;jettySize=auto;html=1;exitX=0.5;exitY=1;exitDx=0;exitDy=0;entryX=0.5;entryY=0;entryDx=0;entryDy=0;" edge="1" parent="1" source="jmJ_CKSjA5PsXkeB_3oR-180" target="jmJ_CKSjA5PsXkeB_3oR-176">
          <mxGeometry relative="1" as="geometry">
            <Array as="points">
              <mxPoint x="1460" y="853" />
              <mxPoint x="1220" y="853" />
              <mxPoint x="1220" y="380" />
              <mxPoint x="1420" y="380" />
            </Array>
          </mxGeometry>
        </mxCell>
        <mxCell id="jmJ_CKSjA5PsXkeB_3oR-180" value="31&lt;br&gt;Определение статуса решения как &quot;Верно&quot;" style="rounded=0;whiteSpace=wrap;html=1;" vertex="1" parent="1">
          <mxGeometry x="1400" y="762.5" width="120" height="70" as="geometry" />
        </mxCell>
        <mxCell id="jmJ_CKSjA5PsXkeB_3oR-193" style="edgeStyle=orthogonalEdgeStyle;rounded=0;orthogonalLoop=1;jettySize=auto;html=1;exitX=0.5;exitY=1;exitDx=0;exitDy=0;entryX=0.5;entryY=0;entryDx=0;entryDy=0;" edge="1" parent="1" source="jmJ_CKSjA5PsXkeB_3oR-181" target="jmJ_CKSjA5PsXkeB_3oR-176">
          <mxGeometry relative="1" as="geometry">
            <Array as="points">
              <mxPoint x="1300" y="853" />
              <mxPoint x="1220" y="853" />
              <mxPoint x="1220" y="380" />
              <mxPoint x="1420" y="380" />
            </Array>
          </mxGeometry>
        </mxCell>
        <mxCell id="jmJ_CKSjA5PsXkeB_3oR-181" value="30&lt;br&gt;Определение статуса решения как&lt;br&gt;&quot;Не верно&quot;" style="rounded=0;whiteSpace=wrap;html=1;" vertex="1" parent="1">
          <mxGeometry x="1240" y="762.5" width="120" height="70" as="geometry" />
        </mxCell>
        <mxCell id="jmJ_CKSjA5PsXkeB_3oR-189" value="10" style="ellipse;whiteSpace=wrap;html=1;" vertex="1" parent="1">
          <mxGeometry x="1430" y="550" width="40" height="40" as="geometry" />
        </mxCell>
        <mxCell id="jmJ_CKSjA5PsXkeB_3oR-190" value="17" style="ellipse;whiteSpace=wrap;html=1;" vertex="1" parent="1">
          <mxGeometry x="1460" y="590" width="40" height="40" as="geometry" />
        </mxCell>
        <mxCell id="jmJ_CKSjA5PsXkeB_3oR-213" style="edgeStyle=orthogonalEdgeStyle;rounded=0;orthogonalLoop=1;jettySize=auto;html=1;exitX=0.5;exitY=1;exitDx=0;exitDy=0;entryX=0.5;entryY=0;entryDx=0;entryDy=0;" edge="1" parent="1" source="jmJ_CKSjA5PsXkeB_3oR-197" target="jmJ_CKSjA5PsXkeB_3oR-198">
          <mxGeometry relative="1" as="geometry" />
        </mxCell>
        <mxCell id="jmJ_CKSjA5PsXkeB_3oR-197" value="32&lt;br&gt;Выбор капчи &quot;Пазл&quot;" style="rounded=0;whiteSpace=wrap;html=1;" vertex="1" parent="1">
          <mxGeometry x="1650" y="290" width="120" height="70" as="geometry" />
        </mxCell>
        <mxCell id="jmJ_CKSjA5PsXkeB_3oR-210" style="edgeStyle=orthogonalEdgeStyle;rounded=0;orthogonalLoop=1;jettySize=auto;html=1;exitX=0.5;exitY=1;exitDx=0;exitDy=0;entryX=0.5;entryY=0;entryDx=0;entryDy=0;" edge="1" parent="1" source="jmJ_CKSjA5PsXkeB_3oR-198" target="jmJ_CKSjA5PsXkeB_3oR-200">
          <mxGeometry relative="1" as="geometry" />
        </mxCell>
        <mxCell id="jmJ_CKSjA5PsXkeB_3oR-211" style="edgeStyle=orthogonalEdgeStyle;rounded=0;orthogonalLoop=1;jettySize=auto;html=1;exitX=0.5;exitY=1;exitDx=0;exitDy=0;entryX=0.5;entryY=0;entryDx=0;entryDy=0;" edge="1" parent="1" source="jmJ_CKSjA5PsXkeB_3oR-198" target="jmJ_CKSjA5PsXkeB_3oR-209">
          <mxGeometry relative="1" as="geometry">
            <Array as="points">
              <mxPoint x="1710" y="490" />
              <mxPoint x="1810" y="490" />
            </Array>
          </mxGeometry>
        </mxCell>
        <mxCell id="jmJ_CKSjA5PsXkeB_3oR-212" style="edgeStyle=orthogonalEdgeStyle;rounded=0;orthogonalLoop=1;jettySize=auto;html=1;exitX=0.5;exitY=1;exitDx=0;exitDy=0;entryX=0.5;entryY=0;entryDx=0;entryDy=0;" edge="1" parent="1" source="jmJ_CKSjA5PsXkeB_3oR-198" target="jmJ_CKSjA5PsXkeB_3oR-208">
          <mxGeometry relative="1" as="geometry">
            <Array as="points">
              <mxPoint x="1710" y="490" />
              <mxPoint x="1770" y="490" />
              <mxPoint x="1770" y="500" />
              <mxPoint x="1780" y="500" />
            </Array>
          </mxGeometry>
        </mxCell>
        <mxCell id="jmJ_CKSjA5PsXkeB_3oR-198" value="33&lt;br&gt;Открылось окно капчи" style="rounded=0;whiteSpace=wrap;html=1;" vertex="1" parent="1">
          <mxGeometry x="1650" y="400" width="120" height="70" as="geometry" />
        </mxCell>
        <mxCell id="jmJ_CKSjA5PsXkeB_3oR-199" style="edgeStyle=orthogonalEdgeStyle;rounded=0;orthogonalLoop=1;jettySize=auto;html=1;exitX=0.5;exitY=1;exitDx=0;exitDy=0;entryX=0.5;entryY=0;entryDx=0;entryDy=0;" edge="1" source="jmJ_CKSjA5PsXkeB_3oR-200" target="jmJ_CKSjA5PsXkeB_3oR-205" parent="1">
          <mxGeometry relative="1" as="geometry" />
        </mxCell>
        <mxCell id="jmJ_CKSjA5PsXkeB_3oR-200" value="34&lt;br&gt;Нажатие кнопки &quot;Проверить&quot;" style="rounded=0;whiteSpace=wrap;html=1;" vertex="1" parent="1">
          <mxGeometry x="1600" y="510" width="120" height="70" as="geometry" />
        </mxCell>
        <mxCell id="jmJ_CKSjA5PsXkeB_3oR-201" style="edgeStyle=orthogonalEdgeStyle;rounded=0;orthogonalLoop=1;jettySize=auto;html=1;exitX=0;exitY=0.5;exitDx=0;exitDy=0;entryX=0.5;entryY=0;entryDx=0;entryDy=0;" edge="1" source="jmJ_CKSjA5PsXkeB_3oR-205" target="jmJ_CKSjA5PsXkeB_3oR-207" parent="1">
          <mxGeometry relative="1" as="geometry" />
        </mxCell>
        <mxCell id="jmJ_CKSjA5PsXkeB_3oR-202" value="Нет" style="edgeLabel;html=1;align=center;verticalAlign=middle;resizable=0;points=[];" vertex="1" connectable="0" parent="jmJ_CKSjA5PsXkeB_3oR-201">
          <mxGeometry x="-0.8302" y="-2" relative="1" as="geometry">
            <mxPoint x="-1" y="-10" as="offset" />
          </mxGeometry>
        </mxCell>
        <mxCell id="jmJ_CKSjA5PsXkeB_3oR-203" style="edgeStyle=orthogonalEdgeStyle;rounded=0;orthogonalLoop=1;jettySize=auto;html=1;exitX=1;exitY=0.5;exitDx=0;exitDy=0;entryX=0.5;entryY=0;entryDx=0;entryDy=0;" edge="1" source="jmJ_CKSjA5PsXkeB_3oR-205" target="jmJ_CKSjA5PsXkeB_3oR-206" parent="1">
          <mxGeometry relative="1" as="geometry" />
        </mxCell>
        <mxCell id="jmJ_CKSjA5PsXkeB_3oR-204" value="Да" style="edgeLabel;html=1;align=center;verticalAlign=middle;resizable=0;points=[];" vertex="1" connectable="0" parent="jmJ_CKSjA5PsXkeB_3oR-203">
          <mxGeometry x="-0.6584" y="1" relative="1" as="geometry">
            <mxPoint x="-11" y="-12" as="offset" />
          </mxGeometry>
        </mxCell>
        <mxCell id="jmJ_CKSjA5PsXkeB_3oR-205" value="35&lt;br&gt;Индексы плиток установлены в исходный&lt;br&gt;порядок?" style="rhombus;whiteSpace=wrap;html=1;" vertex="1" parent="1">
          <mxGeometry x="1650" y="615" width="120" height="105" as="geometry" />
        </mxCell>
        <mxCell id="jmJ_CKSjA5PsXkeB_3oR-215" style="edgeStyle=orthogonalEdgeStyle;rounded=0;orthogonalLoop=1;jettySize=auto;html=1;exitX=0.5;exitY=1;exitDx=0;exitDy=0;" edge="1" parent="1" source="jmJ_CKSjA5PsXkeB_3oR-206">
          <mxGeometry relative="1" as="geometry">
            <mxPoint x="1709.9999999999995" y="400" as="targetPoint" />
            <Array as="points">
              <mxPoint x="1790" y="853" />
              <mxPoint x="1550" y="853" />
              <mxPoint x="1550" y="380" />
              <mxPoint x="1710" y="380" />
            </Array>
          </mxGeometry>
        </mxCell>
        <mxCell id="jmJ_CKSjA5PsXkeB_3oR-206" value="37&lt;br&gt;Определение статуса решения как &quot;Верно&quot;" style="rounded=0;whiteSpace=wrap;html=1;" vertex="1" parent="1">
          <mxGeometry x="1730" y="762.5" width="120" height="70" as="geometry" />
        </mxCell>
        <mxCell id="jmJ_CKSjA5PsXkeB_3oR-214" style="edgeStyle=orthogonalEdgeStyle;rounded=0;orthogonalLoop=1;jettySize=auto;html=1;exitX=0.5;exitY=1;exitDx=0;exitDy=0;entryX=0.5;entryY=0;entryDx=0;entryDy=0;" edge="1" parent="1" source="jmJ_CKSjA5PsXkeB_3oR-207" target="jmJ_CKSjA5PsXkeB_3oR-198">
          <mxGeometry relative="1" as="geometry">
            <Array as="points">
              <mxPoint x="1630" y="853" />
              <mxPoint x="1550" y="853" />
              <mxPoint x="1550" y="380" />
              <mxPoint x="1710" y="380" />
            </Array>
          </mxGeometry>
        </mxCell>
        <mxCell id="jmJ_CKSjA5PsXkeB_3oR-207" value="36&lt;br&gt;Определение статуса решения как&lt;br&gt;&quot;Не верно&quot;" style="rounded=0;whiteSpace=wrap;html=1;" vertex="1" parent="1">
          <mxGeometry x="1570" y="762.5" width="120" height="70" as="geometry" />
        </mxCell>
        <mxCell id="jmJ_CKSjA5PsXkeB_3oR-208" value="10" style="ellipse;whiteSpace=wrap;html=1;" vertex="1" parent="1">
          <mxGeometry x="1760" y="550" width="40" height="40" as="geometry" />
        </mxCell>
        <mxCell id="jmJ_CKSjA5PsXkeB_3oR-209" value="17" style="ellipse;whiteSpace=wrap;html=1;" vertex="1" parent="1">
          <mxGeometry x="1790" y="590" width="40" height="40" as="geometry" />
        </mxCell>
      </root>
    </mxGraphModel>
  </diagram>
</mxfile>
